<svg viewBox="0 0 267.32 173.31" xmlns="http://www.w3.org/2000/svg" id="Layer_2"><defs><style>.cls-1{opacity:.5;}.cls-1,.cls-2{fill:#ffffff;}.cls-3{fill:#00473a;}.cls-4{opacity:.4;}</style></defs><g id="Layer_1-2"><path d="M147.5,105.45c-11.12,0-19.59-6.82-21.29-9.58-.36-.59-.87-1.45-1.49-2.53-3.51-6.02-10.82-18.55-17.47-24.07-3.45-2.86-7.29-6.24-9.57-9.56-2.73-3.97-5.71-10.09-4.36-16.63,1.12-5.45,5.03-10.32,11.63-14.49,8.18-5.17,17.45-6.32,27.55-3.43,15.9,4.55,29.27,17.96,32.28,24.19,13.58,28.07,12.48,43.78-3.66,52.51-4.77,2.58-9.38,3.57-13.61,3.57ZM121.99,24.78c-5.88,0-11.38,1.6-16.44,4.8-6.32,3.99-10.06,8.62-11.12,13.75-1.26,6.15,1.58,11.96,4.19,15.75,2.21,3.21,5.97,6.51,9.36,9.33h0c6.81,5.65,14.18,18.29,17.73,24.37.62,1.06,1.12,1.92,1.48,2.5,2.64,4.28,17.69,14.09,33.38,5.6,15.67-8.48,16.59-23.26,3.17-51.01-2.85-5.9-16.21-19.2-31.56-23.59-3.5-1-6.9-1.5-10.18-1.5Z" class="cls-1"></path><path d="M156.2,154.86c-7.5,0-14-1.77-18.96-3.78-10.09-4.09-17.98-10.97-20.28-15.36-.57-1.08-1.34-2.65-2.32-4.63-5.48-11.11-16.87-34.24-28.05-44.91h0c-5.71-5.45-12.02-11.84-15.59-17.89-4.25-7.22-8.67-18.16-5.57-29.27,2.59-9.26,9.97-17.22,21.93-23.65,14.88-7.99,31.17-8.87,48.42-2.6,27.29,9.92,49.03,35.01,53.54,46.27,10.34,25.85,14.28,44.68,12.43,59.25-1.88,14.76-10.05,25.23-24.98,32-7.36,3.34-14.32,4.57-20.58,4.57ZM86.86,85.91c11.22,10.72,22.64,33.88,28.13,45.01.98,1.98,1.75,3.55,2.31,4.62,1.81,3.46,8.86,10.63,20.09,15.19,9.04,3.66,23.18,6.5,39.25-.78,14.8-6.71,22.9-17.08,24.76-31.7,1.82-14.31-2.24-33.63-12.41-59.06-2.43-6.07-9.51-15.25-18.05-23.36-7.66-7.29-19.99-17.14-35.27-22.69-17.15-6.23-33.34-5.37-48.11,2.57-11.87,6.38-19.19,14.26-21.75,23.41-3.07,10.98,1.31,21.82,5.53,28.98,3.54,6.02,9.83,12.38,15.52,17.81Z" class="cls-1"></path><path d="M161.86,173.31c-7.71,0-14.55-1.36-20.03-3.02-13.32-4.04-24.09-11.65-27.47-16.77-.83-1.25-1.97-3.08-3.41-5.39-8.07-12.91-24.88-39.78-40.16-51.63h0c-7.83-6.07-16.52-13.21-21.68-20.22-6.09-8.27-12.78-20.98-10.06-34.61,2.31-11.6,11.01-22.02,25.85-30.97C83.56-.56,104.82-2.95,128.09,3.6c35.2,9.91,64.78,37.83,71.45,50.67,19.38,37.31,25.58,63.59,19.52,82.7-3.82,12.05-12.56,21.47-26.71,28.79-10.87,5.62-21.3,7.55-30.49,7.55ZM103.33.76c-13.62,0-26.35,3.54-38.04,10.59-14.65,8.84-23.23,19.09-25.49,30.47-2.66,13.35,3.93,25.86,9.93,34.01,5.1,6.93,13.75,14.03,21.53,20.07h0c15.39,11.94,32.24,38.88,40.34,51.83,1.44,2.31,2.58,4.13,3.4,5.37,6.15,9.31,41,30.61,77.01,11.98,13.96-7.22,22.57-16.49,26.33-28.34,6-18.91-.19-45-19.47-82.12-6.62-12.74-36-40.44-70.99-50.29-8.46-2.38-16.66-3.57-24.55-3.57Z" class="cls-1"></path><path d="M95.67,62.31h-2.2c-.41-1.54-1.26-3.19-2.56-4.95s-2.54-2.72-3.74-2.9c-.61-.08-1.32-.14-2.15-.18-.83-.04-1.77-.06-2.83-.06h-6.97v16.7h4.79c1.45,0,2.57-.15,3.38-.45s1.49-.77,2.06-1.39c.39-.43.75-1.1,1.07-2.01s.53-1.88.63-2.92h2.2v16.35h-2.2c-.06-.86-.26-1.83-.6-2.93-.34-1.09-.71-1.88-1.1-2.37-.59-.72-1.33-1.22-2.22-1.48s-1.96-.4-3.22-.4h-4.79v14.3c0,.64.13,1.22.38,1.73s.7.92,1.35,1.23c.29.14.93.3,1.9.5.98.19,1.72.3,2.23.32v2.08h-18.02v-2.08c.59-.04,1.37-.1,2.34-.19s1.61-.2,1.9-.34c.59-.25,1.01-.63,1.27-1.13s.4-1.1.4-1.8v-30c0-.64-.11-1.22-.32-1.71s-.66-.9-1.35-1.22c-.53-.25-1.24-.48-2.12-.67-.89-.19-1.6-.31-2.12-.35v-2.08h32.61v10.4Z" class="cls-3"></path><path d="M145.32,93.49h-17.28v-2.08c1.52-.1,2.79-.29,3.79-.59s1.51-.65,1.51-1.08c0-.18-.02-.39-.06-.64-.04-.25-.1-.48-.18-.67l-3.44-9.32h-14.59c-.55,1.37-.99,2.56-1.33,3.57-.34,1.02-.65,1.95-.92,2.81-.25.84-.43,1.52-.53,2.05-.1.53-.15.96-.15,1.29,0,.78.62,1.39,1.85,1.82,1.23.43,2.62.68,4.16.76v2.08h-15.66v-2.08c.51-.04,1.14-.15,1.9-.34s1.39-.43,1.88-.75c.78-.53,1.39-1.08,1.82-1.66s.85-1.37,1.26-2.39c2.09-5.21,4.39-11.07,6.91-17.58s4.77-12.29,6.74-17.37h2.34l13.86,35.86c.29.76.62,1.38,1,1.85s.89.93,1.55,1.38c.45.27,1.04.5,1.76.69s1.33.29,1.82.31v2.08ZM128.59,76.49l-6.3-16.13-6.21,16.13h12.5Z" class="cls-3"></path><path d="M186.71,80.51l-1.38,12.98h-33.4v-1.03l26.16-38.23h-9.58c-1.11,0-2.05.02-2.8.06-.75.04-1.44.12-2.07.23-1.29.25-2.74,1.32-4.35,3.19s-2.83,3.86-3.65,5.95h-2.05l1.26-11.75h31.14v1.03l-26.16,38.23h9.87c1.66,0,3.43-.12,5.3-.35s3.1-.63,3.66-1.2c1.27-1.21,2.45-2.7,3.54-4.45s1.9-3.31,2.43-4.66h2.05Z" class="cls-3"></path><path d="M215.47,93.49h-18.72v-2.08c.53-.04,1.29-.1,2.29-.18,1-.08,1.7-.19,2.11-.35.64-.25,1.11-.6,1.41-1.04s.44-1.05.44-1.83v-30.12c0-.68-.11-1.25-.32-1.71s-.72-.84-1.52-1.16c-.59-.23-1.32-.45-2.21-.66s-1.62-.33-2.18-.37v-2.08h18.72v2.08c-.61.02-1.33.09-2.17.22s-1.57.29-2.2.48c-.74.23-1.24.62-1.49,1.14s-.38,1.11-.38,1.76v30.09c0,.64.14,1.22.42,1.71s.77.89,1.45,1.19c.41.16,1.08.33,2.01.51s1.71.29,2.36.31v2.08Z" class="cls-3"></path><path d="M261.46,56.84c1.84,1.92,3.27,4.22,4.31,6.93s1.55,5.7,1.55,8.98-.53,6.3-1.58,8.99-2.52,4.99-4.39,6.88c-1.82,1.88-3.93,3.32-6.33,4.34s-4.96,1.52-7.68,1.52c-2.89,0-5.56-.54-8.01-1.63s-4.56-2.59-6.31-4.53c-1.76-1.89-3.14-4.19-4.15-6.9s-1.51-5.6-1.51-8.69c0-3.38.53-6.39,1.58-9.04s2.51-4.94,4.37-6.87c1.84-1.91,3.97-3.38,6.4-4.39,2.43-1.01,4.98-1.52,7.63-1.52s5.35.52,7.79,1.55c2.44,1.04,4.55,2.49,6.33,4.37ZM257.09,86.31c1.09-1.78,1.89-3.79,2.39-6.04.5-2.25.75-4.76.75-7.53s-.28-5.47-.83-7.85c-.56-2.38-1.37-4.41-2.45-6.09-1.07-1.66-2.42-2.95-4.04-3.88s-3.48-1.39-5.57-1.39c-2.34,0-4.34.54-5.98,1.61-1.64,1.07-2.98,2.51-4.01,4.31-.98,1.72-1.7,3.73-2.18,6.04-.48,2.3-.72,4.73-.72,7.27,0,2.81.25,5.35.76,7.62.51,2.27,1.31,4.28,2.4,6.04,1.05,1.72,2.38,3.06,3.98,4.03s3.52,1.45,5.74,1.45c2.09,0,3.97-.49,5.65-1.46,1.68-.98,3.05-2.34,4.1-4.1Z" class="cls-3"></path><path d="M37.91,108.84c2.63,0,4.25,1.3,5.13,2.79l-2.59,1.37c-.49-.79-1.4-1.42-2.54-1.42-1.96,0-3.35,1.51-3.35,3.47s1.39,3.47,3.35,3.47c.94,0,1.78-.32,2.27-.72v-1.01h-2.75v-2.57h5.8v4.7c-1.3,1.42-3.04,2.34-5.31,2.34-3.58,0-6.5-2.39-6.5-6.21s2.92-6.21,6.5-6.21Z" class="cls-3"></path><path d="M59.85,108.84c3.67,0,6.41,2.56,6.41,6.21s-2.74,6.21-6.41,6.21-6.43-2.56-6.43-6.21,2.75-6.21,6.43-6.21ZM59.85,111.58c-2,0-3.28,1.51-3.28,3.47s1.28,3.47,3.28,3.47,3.26-1.53,3.26-3.47-1.28-3.47-3.26-3.47Z" class="cls-3"></path><path d="M76.82,109.04h3.1v9.31h4.83v2.7h-7.92v-12.01Z" class="cls-3"></path><path d="M95.34,109.04h8.8v2.61h-5.71v2h5.58v2.63h-5.58v4.77h-3.1v-12.01Z" class="cls-3"></path><path d="M128.43,109.04h5.04c3.78,0,6.5,2.27,6.5,6s-2.72,6.01-6.48,6.01h-5.06v-12.01ZM133.47,118.35c2.11,0,3.33-1.53,3.33-3.31s-1.12-3.29-3.31-3.29h-1.96v6.61h1.95Z" class="cls-3"></path><path d="M150.51,109.04h8.8v2.61h-5.71v2h5.58v2.63h-5.58v2.16h5.71v2.61h-8.8v-12.01Z" class="cls-3"></path><path d="M170.89,117.03c.86.86,2.2,1.58,3.83,1.58,1.06,0,1.71-.45,1.71-1.03,0-.68-.77-.96-2.05-1.22-1.98-.4-4.75-.9-4.75-3.75,0-2.02,1.71-3.76,4.79-3.76,1.93,0,3.6.58,4.88,1.67l-1.69,2.21c-1.01-.83-2.32-1.24-3.38-1.24s-1.42.41-1.42.94c0,.63.74.85,2.07,1.1,1.98.41,4.72.99,4.72,3.71,0,2.41-1.78,4.01-5,4.01-2.43,0-4.12-.76-5.33-1.91l1.64-2.32Z" class="cls-3"></path><path d="M190.02,109.04h3.1v12.01h-3.1v-12.01Z" class="cls-3"></path><path d="M210.17,108.84c2.63,0,4.25,1.3,5.13,2.79l-2.59,1.37c-.49-.79-1.4-1.42-2.54-1.42-1.96,0-3.35,1.51-3.35,3.47s1.39,3.47,3.35,3.47c.94,0,1.78-.32,2.27-.72v-1.01h-2.75v-2.57h5.8v4.7c-1.3,1.42-3.04,2.34-5.31,2.34-3.58,0-6.5-2.39-6.5-6.21s2.92-6.21,6.5-6.21Z" class="cls-3"></path><path d="M229.39,113.79v7.26h-3.1v-12.01h3.19l4.86,6.91v-6.91h3.11v12.01h-2.99l-5.08-7.26Z" class="cls-3"></path><g class="cls-4"><path d="M29.4,55.06c-.55.02-1.24.09-2.05.22s-1.51.29-2.08.49c-.67.24-1.12.63-1.36,1.18-.24.55-.35,1.15-.35,1.8v24.85c0,1.3-.26,2.68-.78,4.14-.52,1.46-1.29,2.76-2.29,3.9-1.16,1.34-2.55,2.38-4.15,3.13s-3.44,1.12-5.51,1.12c-3.21,0-5.82-.9-7.81-2.7s-3-4.23-3-7.28c0-1.34.34-2.53,1.03-3.56s1.69-1.55,3.01-1.55c1.18,0,2.13.33,2.85.99s1.08,1.53,1.08,2.61c0,.63-.13,1.26-.38,1.89-.26.63-.54,1.19-.86,1.68-.3.45-.63.99-1,1.6-.37.61-.64,1.16-.8,1.65.41.65,1.06,1.22,1.94,1.71.88.49,2.05.74,3.53.74s2.61-.33,3.53-.99,1.6-1.54,2.05-2.64c.43-1.02.74-2.28.93-3.78.19-1.5.28-3.17.28-5.02v-22.19c0-.69-.11-1.27-.34-1.73s-.69-.87-1.4-1.23c-.61-.31-1.37-.56-2.29-.72s-1.67-.27-2.26-.31v-2.1h18.5v2.1Z" class="cls-2"></path><path d="M43.26,91.49c0,1.1-.4,2.04-1.2,2.82s-1.75,1.17-2.85,1.17-2.05-.39-2.85-1.17-1.2-1.72-1.2-2.82.4-2.05,1.2-2.85,1.75-1.2,2.85-1.2,2.05.4,2.85,1.2,1.2,1.75,1.2,2.85Z" class="cls-2"></path></g></g></svg>